<?xml version="1.0" encoding="UTF-8" standalone="no"?>
<!-- Generator: Adobe Illustrator 19.0.0, SVG Export Plug-In . SVG Version: 6.00 Build 0)  -->

<svg
   version="1.1"
   id="Layer_1"
   x="0px"
   y="0px"
   viewBox="0 0 60 43.12498"
   xml:space="preserve"
   sodipodi:docname="logo-header.svg"
   width="60"
   height="43.124981"
   inkscape:version="1.2.1 (9c6d41e4, 2022-07-14)"
   xmlns:inkscape="http://www.inkscape.org/namespaces/inkscape"
   xmlns:sodipodi="http://sodipodi.sourceforge.net/DTD/sodipodi-0.dtd"
   xmlns="http://www.w3.org/2000/svg"
   xmlns:svg="http://www.w3.org/2000/svg"><defs
   id="defs203"><clipPath
     clipPathUnits="userSpaceOnUse"
     id="clipPath8199"><rect
       style="fill:#fafafa;fill-opacity:1;stroke:none;stroke-width:6.04725;stroke-linecap:round;stroke-linejoin:round;stroke-opacity:0.0864745;paint-order:stroke fill markers"
       id="rect8201"
       width="495.966"
       height="330.64398"
       x="8.0170002"
       y="72.150002" /></clipPath></defs><sodipodi:namedview
   id="namedview201"
   pagecolor="#ffffff"
   bordercolor="#666666"
   borderopacity="1.0"
   inkscape:showpageshadow="2"
   inkscape:pageopacity="0.0"
   inkscape:pagecheckerboard="0"
   inkscape:deskcolor="#d1d1d1"
   showgrid="false"
   inkscape:zoom="1.8875858"
   inkscape:cx="55.096833"
   inkscape:cy="32.316412"
   inkscape:window-width="1393"
   inkscape:window-height="872"
   inkscape:window-x="47"
   inkscape:window-y="0"
   inkscape:window-maximized="0"
   inkscape:current-layer="Layer_1" />



















<g
   id="g170"
   transform="translate(-43.017001,-93.400014)">
</g>
<g
   id="g172"
   transform="translate(-43.017001,-93.400014)">
</g>
<g
   id="g174"
   transform="translate(-43.017001,-93.400014)">
</g>
<g
   id="g176"
   transform="translate(-43.017001,-93.400014)">
</g>
<g
   id="g178"
   transform="translate(-43.017001,-93.400014)">
</g>
<g
   id="g180"
   transform="translate(-43.017001,-93.400014)">
</g>
<g
   id="g182"
   transform="translate(-43.017001,-93.400014)">
</g>
<g
   id="g184"
   transform="translate(-43.017001,-93.400014)">
</g>
<g
   id="g186"
   transform="translate(-43.017001,-93.400014)">
</g>
<g
   id="g188"
   transform="translate(-43.017001,-93.400014)">
</g>
<g
   id="g190"
   transform="translate(-43.017001,-93.400014)">
</g>
<g
   id="g192"
   transform="translate(-43.017001,-93.400014)">
</g>
<g
   id="g194"
   transform="translate(-43.017001,-93.400014)">
</g>
<g
   id="g196"
   transform="translate(-43.017001,-93.400014)">
</g>
<g
   id="g198"
   transform="translate(-43.017001,-93.400014)">
</g>
<g
   id="g455"
   transform="scale(0.75000002)"
   style="stroke-width:1.33333"><g
     id="g6763"
     transform="matrix(0.15624992,0,0,0.15624992,2.016297e-5,-11.249994)"
     style="stroke-width:8.53333"><path
       style="fill:#ffdb6f;stroke-width:8.53333"
       d="M 503.999,108.561 280,234.72 c -14.606,8.21 -32.435,8.21 -47.04,0 L 8,108.561 C 3.03,105.692 -0.023,100.38 0,94.641 v 0 C 0,82.137 10.136,72 22.64,72 H 489.36 C 501.863,72 512,82.136 512,94.64 v 0 0 c 0.022,5.739 -3.03,11.051 -8.001,13.921 z"
       id="path5842" /><path
       style="fill:#ffcb5b;stroke-width:8.53333"
       d="M 503.999,108.561 280,234.72 c -14.606,8.21 -32.435,8.21 -47.04,0 L 8,108.561 C 3.03,105.692 -0.023,100.38 0,94.641 v 322.72 C 0,429.863 10.136,440 22.64,440 v 0 H 489.36 C 501.863,440 512,429.864 512,417.36 v 0 -321.359 c 0,0 0,-0.48 0,-0.8 -0.174,5.538 -3.2,10.591 -8.001,13.36 z"
       id="path5844" /><path
       style="fill:#f7b84e;stroke-width:8.53333"
       d="m 511.999,95.201 c -0.173,5.538 -3.2,10.592 -8,13.36 L 280,234.72 c -14.606,8.21 -32.435,8.21 -47.04,0 l -11.52,-6.48 v 0 L 8,108.561 c -1.196,-0.682 -2.298,-1.516 -3.279,-2.48 -0.817,-0.825 -1.541,-1.737 -2.16,-2.72 v -0.4 c -1.466,-2.416 -2.266,-5.175 -2.32,-8 H 0 v 1.04 16 c -0.011,5.528 2.832,10.67 7.52,13.6 l 205.44,128 c 0.669,2.875 -0.176,5.891 -2.24,8 -3.5,3.372 -3.602,8.944 -0.229,12.443 1.152,1.195 2.618,2.04 4.229,2.437 4.727,1.13 7.642,5.879 6.512,10.605 -0.074,0.31 -0.165,0.615 -0.272,0.914 -1.462,4.635 1.109,9.578 5.744,11.04 1.724,0.544 3.573,0.544 5.295,0 4.672,-1.339 9.545,1.364 10.884,6.035 0.027,0.094 0.052,0.189 0.076,0.285 1.202,4.709 5.994,7.552 10.703,6.35 0.883,-0.225 1.725,-0.586 2.497,-1.071 v 48.8 c 0,26.819 -21.741,48.56 -48.56,48.56 -0.053,0 -0.106,0 -0.161,0 H 72.001 c -17.674,0 -32,14.327 -32,32 H 489.36 c 12.503,0 22.64,-10.136 22.64,-22.64 v 0 -321.358 c -10e-4,0 -10e-4,-0.48 -10e-4,-0.8 z"
       id="path5846" /><path
       style="fill:#f19920;stroke-width:8.53333"
       d="m 279.52,234.8 c -14.606,8.21 -32.435,8.21 -47.04,0 L 8.48,108.96 c 0.827,0.782 1.71,1.504 2.64,2.16 l 219.36,136 c 15.507,9.629 35.133,9.629 50.639,0 l 219.36,-136 c 0.93,-0.656 1.812,-1.378 2.64,-2.16 z"
       id="path5848" /><g
       id="g5854"
       style="stroke-width:8.53333">
	<path
   style="fill:#ffe278;stroke-width:8.53333"
   d="M 211.92,177.041 148.88,142 c -7.733,-4.276 -10.535,-14.011 -6.259,-21.744 2.862,-5.176 8.346,-8.351 14.259,-8.256 H 160 c 4.418,0 8,-3.582 8,-8 0,-4.418 -3.582,-8 -8,-8 H 64.001 c -2.869,-0.011 -5.525,1.515 -6.96,4 -2.143,3.864 -0.749,8.733 3.114,10.877 0.002,0.001 0.004,0.002 0.006,0.003 l 144,80 c 3.543,2.639 8.556,1.905 11.194,-1.639 2.639,-3.543 1.905,-8.556 -1.639,-11.194 -0.554,-0.412 -1.157,-0.75 -1.796,-1.006 z"
   id="path5850" />
	<path
   style="fill:#ffe278;stroke-width:8.53333"
   d="m 192,96.001 h 48 c 4.418,0 8,3.582 8,8 v 0 c 0,4.418 -3.582,8 -8,8 h -48 c -4.418,0 -8,-3.582 -8,-8 v 0 c 0,-4.419 3.582,-8 8,-8 z"
   id="path5852" />
</g><path
       style="fill:#ee2c39;stroke-width:8.53333"
       d="m 280,264.001 h -48 c -4.418,0 -8,3.582 -8,8 v 80 c 0.023,4.418 3.623,7.981 8.041,7.958 1.551,-0.008 3.065,-0.466 4.358,-1.319 l 19.6,-13.04 19.6,13.04 c 3.69,2.43 8.651,1.409 11.081,-2.281 0.852,-1.295 1.311,-2.809 1.319,-4.358 v -80 c 10e-4,-4.419 -3.581,-8 -7.999,-8 z"
       id="path5856" /><path
       style="fill:#cc202c;stroke-width:8.53333"
       d="m 256,296 c -11.82,-0.027 -23.214,-4.414 -32,-12.32 v 0 c -0.216,11.895 7.392,22.525 18.72,26.16 l 1.68,0.48 c 6.879,1.677 11.689,7.88 11.6,14.96 v 20.32 l 19.6,13.04 c 3.69,2.43 8.651,1.409 11.081,-2.281 0.852,-1.295 1.311,-2.809 1.319,-4.358 v -68.32 c -8.786,7.906 -20.18,12.292 -32,12.319 z"
       id="path5858" /><circle
       style="fill:#c97629;stroke-width:8.53333"
       cx="256.004"
       cy="239.99899"
       r="56"
       id="circle5860" /><circle
       style="fill:#a35425;stroke-width:8.53333"
       cx="256.004"
       cy="239.99899"
       r="23.999001"
       id="circle5862" /><path
       style="fill:#da8c36;stroke-width:8.53333"
       d="m 288,232.001 c 4.418,0 8,3.582 8,8 0,22.091 -17.908,40 -40,40 -4.418,0 -8,-3.582 -8,-8 0,-4.418 3.582,-8 8,-8 13.255,0 24,-10.745 24,-24 0,-4.419 3.582,-8 8,-8 z"
       id="path5864" /><path
       style="fill:#b06328;stroke-width:8.53333"
       d="m 224,248.001 c -4.418,0 -8,-3.582 -8,-8 0,-22.091 17.908,-40 40,-40 4.418,0 8,3.582 8,8 0,4.418 -3.582,8 -8,8 -13.255,0 -24,10.745 -24,24 0,4.418 -3.582,8 -8,8 z"
       id="path5866" /></g></g></svg>
