<svg width="24" height="24" viewBox="0 0 24 24" fill="none" xmlns="http://www.w3.org/2000/svg">
<path d="M20 11H4M20 11V19C20 20.1046 19.1046 21 18 21H6C4.89543 21 4 20.1046 4 19V7C4 5.89543 4.89543 5 6 5H18C19.1046 5 20 5.89543 20 7V11ZM15 3V7M9 3V7" stroke="#F7B84E" stroke-width="1.5" stroke-linecap="round" stroke-linejoin="round"/>
<path d="M16.375 15.25C16.7202 15.25 17 14.9702 17 14.625C17 14.2798 16.7202 14 16.375 14C16.0298 14 15.75 14.2798 15.75 14.625C15.75 14.9702 16.0298 15.25 16.375 15.25Z" fill="#F7B84E"/>
<path d="M12 15.25C12.3452 15.25 12.625 14.9702 12.625 14.625C12.625 14.2798 12.3452 14 12 14C11.6548 14 11.375 14.2798 11.375 14.625C11.375 14.9702 11.6548 15.25 12 15.25Z" fill="#F7B84E"/>
<path d="M7.625 15.25C7.97018 15.25 8.25 14.9702 8.25 14.625C8.25 14.2798 7.97018 14 7.625 14C7.27982 14 7 14.2798 7 14.625C7 14.9702 7.27982 15.25 7.625 15.25Z" fill="#F7B84E"/>
<path d="M16.375 15.25C16.7202 15.25 17 14.9702 17 14.625C17 14.2798 16.7202 14 16.375 14C16.0298 14 15.75 14.2798 15.75 14.625C15.75 14.9702 16.0298 15.25 16.375 15.25Z" stroke="#F7B84E" stroke-linecap="round" stroke-linejoin="round"/>
<path d="M12 15.25C12.3452 15.25 12.625 14.9702 12.625 14.625C12.625 14.2798 12.3452 14 12 14C11.6548 14 11.375 14.2798 11.375 14.625C11.375 14.9702 11.6548 15.25 12 15.25Z" stroke="#F7B84E" stroke-linecap="round" stroke-linejoin="round"/>
<path d="M7.625 15.25C7.97018 15.25 8.25 14.9702 8.25 14.625C8.25 14.2798 7.97018 14 7.625 14C7.27982 14 7 14.2798 7 14.625C7 14.9702 7.27982 15.25 7.625 15.25Z" stroke="#F7B84E" stroke-linecap="round" stroke-linejoin="round"/>
<path d="M16.375 18.25C16.7202 18.25 17 17.9702 17 17.625C17 17.2798 16.7202 17 16.375 17C16.0298 17 15.75 17.2798 15.75 17.625C15.75 17.9702 16.0298 18.25 16.375 18.25Z" fill="#F7B84E"/>
<path d="M12 18.25C12.3452 18.25 12.625 17.9702 12.625 17.625C12.625 17.2798 12.3452 17 12 17C11.6548 17 11.375 17.2798 11.375 17.625C11.375 17.9702 11.6548 18.25 12 18.25Z" fill="#F7B84E"/>
<path d="M7.625 18.25C7.97018 18.25 8.25 17.9702 8.25 17.625C8.25 17.2798 7.97018 17 7.625 17C7.27982 17 7 17.2798 7 17.625C7 17.9702 7.27982 18.25 7.625 18.25Z" fill="#F7B84E"/>
<path d="M16.375 18.25C16.7202 18.25 17 17.9702 17 17.625C17 17.2798 16.7202 17 16.375 17C16.0298 17 15.75 17.2798 15.75 17.625C15.75 17.9702 16.0298 18.25 16.375 18.25Z" stroke="#F7B84E" stroke-linecap="round" stroke-linejoin="round"/>
<path d="M12 18.25C12.3452 18.25 12.625 17.9702 12.625 17.625C12.625 17.2798 12.3452 17 12 17C11.6548 17 11.375 17.2798 11.375 17.625C11.375 17.9702 11.6548 18.25 12 18.25Z" stroke="#F7B84E" stroke-linecap="round" stroke-linejoin="round"/>
<path d="M7.625 18.25C7.97018 18.25 8.25 17.9702 8.25 17.625C8.25 17.2798 7.97018 17 7.625 17C7.27982 17 7 17.2798 7 17.625C7 17.9702 7.27982 18.25 7.625 18.25Z" stroke="#F7B84E" stroke-linecap="round" stroke-linejoin="round"/>
</svg>
